<mxfile>
    <diagram id="qApNia1IlovnBelwISr6" name="Page-1">
        <mxGraphModel dx="1230" dy="574" grid="1" gridSize="10" guides="1" tooltips="1" connect="1" arrows="1" fold="1" page="1" pageScale="1" pageWidth="850" pageHeight="1100" math="0" shadow="0">
            <root>
                <mxCell id="0"/>
                <mxCell id="1" parent="0"/>
                <mxCell id="3" value="Twilio" style="rounded=0;whiteSpace=wrap;html=1;fillColor=#3399FF;" parent="1" vertex="1">
                    <mxGeometry y="100" width="120" height="60" as="geometry"/>
                </mxCell>
                <mxCell id="4" value="DaVinci" style="whiteSpace=wrap;html=1;fillColor=#3399FF;" parent="1" vertex="1">
                    <mxGeometry x="487" y="100" width="120" height="60" as="geometry"/>
                </mxCell>
                <mxCell id="5" value="Twilio API App" style="whiteSpace=wrap;html=1;fillColor=#3399FF;" parent="1" vertex="1">
                    <mxGeometry x="243" y="100" width="120" height="60" as="geometry"/>
                </mxCell>
                <mxCell id="6" value="Global Presence" style="whiteSpace=wrap;html=1;fillColor=#3399FF;" parent="1" vertex="1">
                    <mxGeometry x="730" y="100" width="120" height="60" as="geometry"/>
                </mxCell>
                <mxCell id="7" value="&lt;b&gt;To Global Presence&lt;/b&gt;" style="text;html=1;align=center;verticalAlign=middle;resizable=0;points=[];autosize=1;strokeColor=#FFFFFF;fillColor=#000000;" parent="1" vertex="1">
                    <mxGeometry x="10" y="50" width="130" height="20" as="geometry"/>
                </mxCell>
                <mxCell id="8" value="" style="endArrow=classic;html=1;exitX=0.5;exitY=1;exitDx=0;exitDy=0;" parent="1" source="3" edge="1">
                    <mxGeometry width="50" height="50" relative="1" as="geometry">
                        <mxPoint x="90" y="330" as="sourcePoint"/>
                        <mxPoint x="60" y="1090" as="targetPoint"/>
                    </mxGeometry>
                </mxCell>
                <mxCell id="9" value="" style="endArrow=classic;html=1;exitX=0.5;exitY=1;exitDx=0;exitDy=0;" parent="1" source="5" edge="1">
                    <mxGeometry width="50" height="50" relative="1" as="geometry">
                        <mxPoint x="330" y="350" as="sourcePoint"/>
                        <mxPoint x="303" y="1090" as="targetPoint"/>
                    </mxGeometry>
                </mxCell>
                <mxCell id="10" value="" style="endArrow=classic;html=1;exitX=0.5;exitY=1;exitDx=0;exitDy=0;" parent="1" source="4" edge="1">
                    <mxGeometry width="50" height="50" relative="1" as="geometry">
                        <mxPoint x="580" y="410" as="sourcePoint"/>
                        <mxPoint x="547" y="1090" as="targetPoint"/>
                    </mxGeometry>
                </mxCell>
                <mxCell id="11" value="" style="endArrow=classic;html=1;exitX=0.5;exitY=1;exitDx=0;exitDy=0;" parent="1" source="6" edge="1">
                    <mxGeometry width="50" height="50" relative="1" as="geometry">
                        <mxPoint x="680" y="320" as="sourcePoint"/>
                        <mxPoint x="790" y="1090" as="targetPoint"/>
                    </mxGeometry>
                </mxCell>
                <mxCell id="12" value="" style="endArrow=classic;html=1;" parent="1" edge="1">
                    <mxGeometry width="50" height="50" relative="1" as="geometry">
                        <mxPoint x="304" y="210" as="sourcePoint"/>
                        <mxPoint x="60" y="210" as="targetPoint"/>
                    </mxGeometry>
                </mxCell>
                <mxCell id="13" value="Subscribe to activity changes" style="text;html=1;align=center;verticalAlign=middle;resizable=0;points=[];autosize=1;strokeColor=none;" parent="1" vertex="1">
                    <mxGeometry x="100" y="190" width="170" height="20" as="geometry"/>
                </mxCell>
                <mxCell id="14" value="" style="endArrow=classic;html=1;" parent="1" edge="1">
                    <mxGeometry width="50" height="50" relative="1" as="geometry">
                        <mxPoint x="60" y="260" as="sourcePoint"/>
                        <mxPoint x="304" y="260" as="targetPoint"/>
                    </mxGeometry>
                </mxCell>
                <mxCell id="15" value="Activity changed" style="text;html=1;align=center;verticalAlign=middle;resizable=0;points=[];autosize=1;strokeColor=none;" parent="1" vertex="1">
                    <mxGeometry x="135" y="240" width="100" height="20" as="geometry"/>
                </mxCell>
                <mxCell id="18" value="" style="group" parent="1" vertex="1" connectable="0">
                    <mxGeometry x="304" y="280" width="40" height="40" as="geometry"/>
                </mxCell>
                <mxCell id="16" value="" style="shape=partialRectangle;whiteSpace=wrap;html=1;bottom=1;right=1;left=1;top=0;fillColor=none;routingCenterX=-0.5;strokeColor=#FFFFFF;rotation=-90;" parent="18" vertex="1">
                    <mxGeometry width="40" height="40" as="geometry"/>
                </mxCell>
                <mxCell id="17" value="" style="endArrow=classic;html=1;exitX=0;exitY=1;exitDx=0;exitDy=0;entryX=0;entryY=0;entryDx=0;entryDy=0;" parent="18" source="16" target="16" edge="1">
                    <mxGeometry width="50" height="50" relative="1" as="geometry">
                        <mxPoint y="120" as="sourcePoint"/>
                        <mxPoint x="50" y="70" as="targetPoint"/>
                    </mxGeometry>
                </mxCell>
                <mxCell id="19" value="Update internal presence" style="text;html=1;align=left;verticalAlign=middle;resizable=0;points=[];autosize=1;strokeColor=none;" parent="1" vertex="1">
                    <mxGeometry x="350" y="290" width="150" height="20" as="geometry"/>
                </mxCell>
                <mxCell id="20" value="" style="endArrow=classic;html=1;" parent="1" edge="1">
                    <mxGeometry width="50" height="50" relative="1" as="geometry">
                        <mxPoint x="301" y="350" as="sourcePoint"/>
                        <mxPoint x="548" y="350" as="targetPoint"/>
                    </mxGeometry>
                </mxCell>
                <mxCell id="21" value="setPresence()" style="text;html=1;align=center;verticalAlign=middle;resizable=0;points=[];autosize=1;strokeColor=none;" parent="1" vertex="1">
                    <mxGeometry x="380" y="330" width="90" height="20" as="geometry"/>
                </mxCell>
                <mxCell id="22" value="" style="endArrow=classic;html=1;" parent="1" edge="1">
                    <mxGeometry width="50" height="50" relative="1" as="geometry">
                        <mxPoint x="790" y="210" as="sourcePoint"/>
                        <mxPoint x="547" y="210" as="targetPoint"/>
                    </mxGeometry>
                </mxCell>
                <mxCell id="23" value="registerOnPresenceChanged() **" style="text;html=1;align=center;verticalAlign=middle;resizable=0;points=[];autosize=1;strokeColor=none;" parent="1" vertex="1">
                    <mxGeometry x="575" y="190" width="190" height="20" as="geometry"/>
                </mxCell>
                <mxCell id="24" value="" style="endArrow=classic;html=1;" parent="1" edge="1">
                    <mxGeometry width="50" height="50" relative="1" as="geometry">
                        <mxPoint x="550" y="370" as="sourcePoint"/>
                        <mxPoint x="790" y="370" as="targetPoint"/>
                    </mxGeometry>
                </mxCell>
                <mxCell id="25" value="Notify presence changed" style="text;html=1;align=center;verticalAlign=middle;resizable=0;points=[];autosize=1;strokeColor=none;" parent="1" vertex="1">
                    <mxGeometry x="595" y="350" width="150" height="20" as="geometry"/>
                </mxCell>
                <mxCell id="26" value="" style="rounded=0;whiteSpace=wrap;html=1;strokeColor=#FFFFFF;fillColor=#FFFFFF;" parent="1" vertex="1">
                    <mxGeometry y="400" width="850" height="20" as="geometry"/>
                </mxCell>
                <mxCell id="27" value="&lt;b&gt;From Global Presence&lt;/b&gt;" style="text;html=1;align=center;verticalAlign=middle;resizable=0;points=[];autosize=1;strokeColor=#FFFFFF;fillColor=#000000;" parent="1" vertex="1">
                    <mxGeometry x="10" y="440" width="140" height="20" as="geometry"/>
                </mxCell>
                <mxCell id="28" value="" style="endArrow=classic;html=1;" parent="1" edge="1">
                    <mxGeometry width="50" height="50" relative="1" as="geometry">
                        <mxPoint x="304" y="470" as="sourcePoint"/>
                        <mxPoint x="544" y="470" as="targetPoint"/>
                    </mxGeometry>
                </mxCell>
                <mxCell id="29" value="registerOnPresenceChanged()" style="text;html=1;align=center;verticalAlign=middle;resizable=0;points=[];autosize=1;strokeColor=none;" parent="1" vertex="1">
                    <mxGeometry x="334" y="450" width="180" height="20" as="geometry"/>
                </mxCell>
                <mxCell id="30" value="" style="endArrow=classic;html=1;" parent="1" edge="1">
                    <mxGeometry width="50" height="50" relative="1" as="geometry">
                        <mxPoint x="792" y="510" as="sourcePoint"/>
                        <mxPoint x="548" y="510" as="targetPoint"/>
                    </mxGeometry>
                </mxCell>
                <mxCell id="31" value="Send new workmode" style="text;html=1;align=center;verticalAlign=middle;resizable=0;points=[];autosize=1;strokeColor=none;" parent="1" vertex="1">
                    <mxGeometry x="608" y="490" width="130" height="20" as="geometry"/>
                </mxCell>
                <mxCell id="32" value="" style="endArrow=classic;html=1;" parent="1" edge="1">
                    <mxGeometry width="50" height="50" relative="1" as="geometry">
                        <mxPoint x="548" y="540" as="sourcePoint"/>
                        <mxPoint x="304" y="540" as="targetPoint"/>
                    </mxGeometry>
                </mxCell>
                <mxCell id="33" value="Notify presence changed" style="text;html=1;align=center;verticalAlign=middle;resizable=0;points=[];autosize=1;strokeColor=none;" parent="1" vertex="1">
                    <mxGeometry x="354" y="520" width="150" height="20" as="geometry"/>
                </mxCell>
                <mxCell id="34" value="" style="group" parent="1" vertex="1" connectable="0">
                    <mxGeometry x="304" y="560" width="40" height="40" as="geometry"/>
                </mxCell>
                <mxCell id="35" value="" style="shape=partialRectangle;whiteSpace=wrap;html=1;bottom=1;right=1;left=1;top=0;fillColor=none;routingCenterX=-0.5;strokeColor=#FFFFFF;rotation=-90;" parent="34" vertex="1">
                    <mxGeometry width="40" height="40" as="geometry"/>
                </mxCell>
                <mxCell id="36" value="" style="endArrow=classic;html=1;exitX=0;exitY=1;exitDx=0;exitDy=0;entryX=0;entryY=0;entryDx=0;entryDy=0;" parent="34" source="35" target="35" edge="1">
                    <mxGeometry width="50" height="50" relative="1" as="geometry">
                        <mxPoint y="120" as="sourcePoint"/>
                        <mxPoint x="50" y="70" as="targetPoint"/>
                    </mxGeometry>
                </mxCell>
                <mxCell id="37" value="Update internal presence" style="text;html=1;align=left;verticalAlign=middle;resizable=0;points=[];autosize=1;strokeColor=none;" parent="1" vertex="1">
                    <mxGeometry x="350" y="570" width="150" height="20" as="geometry"/>
                </mxCell>
                <mxCell id="38" value="" style="endArrow=classic;html=1;" parent="1" edge="1">
                    <mxGeometry width="50" height="50" relative="1" as="geometry">
                        <mxPoint x="304" y="640" as="sourcePoint"/>
                        <mxPoint x="60" y="640" as="targetPoint"/>
                    </mxGeometry>
                </mxCell>
                <mxCell id="39" value="Set new Twilio Activity" style="text;html=1;align=center;verticalAlign=middle;resizable=0;points=[];autosize=1;strokeColor=none;" parent="1" vertex="1">
                    <mxGeometry x="120" y="620" width="130" height="20" as="geometry"/>
                </mxCell>
                <mxCell id="40" value="** GP registerOnPresenceChanged is assumed,&lt;br&gt;but is not in the repo.&amp;nbsp; &amp;nbsp; &amp;nbsp; &amp;nbsp; &amp;nbsp; &amp;nbsp; &amp;nbsp; &amp;nbsp; &amp;nbsp; &amp;nbsp; &amp;nbsp; &amp;nbsp; &amp;nbsp; &amp;nbsp; &amp;nbsp; &amp;nbsp; &amp;nbsp; &amp;nbsp;" style="text;html=1;align=center;verticalAlign=middle;resizable=0;points=[];autosize=1;strokeColor=none;" vertex="1" parent="1">
                    <mxGeometry x="570" y="20" width="270" height="30" as="geometry"/>
                </mxCell>
            </root>
        </mxGraphModel>
    </diagram>
</mxfile>